<svg width="1233" height="309" viewBox="0 0 1233 309" fill="none" xmlns="http://www.w3.org/2000/svg">
<rect x="0.5" y="0.500061" width="44" height="308" stroke="#054DFC"/>
<rect x="44.5" y="0.500061" width="44" height="308" stroke="#054DFC"/>
<rect x="88.5" y="0.500061" width="44" height="308" stroke="#054DFC"/>
<rect x="132.5" y="0.500061" width="44" height="308" stroke="#054DFC"/>
<rect x="176.5" y="0.500061" width="44" height="308" stroke="#054DFC"/>
<rect x="220.5" y="0.500061" width="44" height="308" stroke="#054DFC"/>
<rect x="264.5" y="0.500061" width="44" height="308" stroke="#054DFC"/>
<rect x="308.5" y="0.500061" width="44" height="308" stroke="#054DFC"/>
<rect x="352.5" y="0.500061" width="44" height="308" stroke="#054DFC"/>
<rect x="396.5" y="0.500061" width="44" height="308" stroke="#054DFC"/>
<rect x="440.5" y="0.500061" width="44" height="308" stroke="#054DFC"/>
<rect x="484.5" y="0.500061" width="44" height="308" stroke="#054DFC"/>
<rect x="528.5" y="0.500061" width="44" height="308" stroke="#054DFC"/>
<rect x="572.5" y="0.500061" width="44" height="308" stroke="#054DFC"/>
<rect x="616.5" y="0.500061" width="44" height="308" stroke="#054DFC"/>
<rect x="660.5" y="0.500061" width="44" height="308" stroke="#054DFC"/>
<rect x="704.5" y="0.500061" width="44" height="308" stroke="#054DFC"/>
<rect x="748.5" y="0.500061" width="44" height="308" stroke="#054DFC"/>
<rect x="792.5" y="0.500061" width="44" height="308" stroke="#054DFC"/>
<rect x="836.5" y="0.500061" width="44" height="308" stroke="#054DFC"/>
<rect x="880.5" y="0.500061" width="44" height="308" stroke="#054DFC"/>
<rect x="924.5" y="0.500061" width="44" height="308" stroke="#054DFC"/>
<rect x="968.5" y="0.500061" width="44" height="308" stroke="#054DFC"/>
<rect x="1012.5" y="0.500061" width="44" height="308" stroke="#054DFC"/>
<rect x="1056.5" y="0.500061" width="44" height="308" stroke="#054DFC"/>
<rect x="1100.5" y="0.500061" width="44" height="308" stroke="#054DFC"/>
<rect x="1144.5" y="0.500061" width="44" height="308" stroke="#054DFC"/>
<rect x="1188.5" y="0.500061" width="44" height="308" stroke="#054DFC"/>
<rect x="1232.5" y="0.500061" width="44.0001" height="1232" transform="rotate(90 1232.5 0.500061)" stroke="#054DFC"/>
<rect x="1232.5" y="44.5001" width="44.0001" height="1232" transform="rotate(90 1232.5 44.5001)" stroke="#054DFC"/>
<rect x="1232.5" y="88.5001" width="44.0001" height="1232" transform="rotate(90 1232.5 88.5001)" stroke="#054DFC"/>
<rect x="1232.5" y="132.5" width="44.0001" height="1232" transform="rotate(90 1232.5 132.5)" stroke="#054DFC"/>
<rect x="1232.5" y="176.5" width="44.0001" height="1232" transform="rotate(90 1232.5 176.5)" stroke="#054DFC"/>
<rect x="1232.5" y="176.5" width="44.0001" height="1232" transform="rotate(90 1232.5 176.5)" stroke="#054DFC"/>
<rect x="1232.5" y="220.5" width="44.0001" height="1232" transform="rotate(90 1232.5 220.5)" stroke="#054DFC"/>
<rect x="1232.5" y="264.5" width="44.0001" height="1232" transform="rotate(90 1232.5 264.5)" stroke="#054DFC"/>
</svg>
