<svg width="426" height="95" viewBox="0 0 426 95" fill="none" xmlns="http://www.w3.org/2000/svg">
<g clip-path="url(#clip0_15_2)">
<path d="M121.294 58.28C136.558 58.28 143.502 51.6355 143.502 37.0895C143.502 23.0224 136.259 16.5576 120.216 16.5576H101.42V58.28H121.294ZM111.417 25.1774H120.396C129.734 25.1774 133.505 28.6493 133.505 37.0895C133.505 46.0087 129.914 49.6601 121.114 49.6601H111.417V25.1774Z" fill="white"/>
<path d="M170.882 59.1779C186.146 59.1779 193.09 52.3538 193.09 37.2691C193.09 22.4837 186.027 15.6597 170.882 15.6597C155.738 15.6597 148.674 22.4837 148.674 37.2691C148.674 52.3538 155.738 59.1779 170.882 59.1779ZM158.671 37.2691C158.671 27.7514 162.083 24.2795 170.882 24.2795C179.682 24.2795 183.094 27.7514 183.094 37.2691C183.094 46.7869 179.682 50.558 170.882 50.558C162.083 50.558 158.671 46.8467 158.671 37.2691Z" fill="white"/>
<path d="M237.514 16.5576L227.457 48.4629L217.521 16.5576H199.862V58.28H209.38V24.8781H210.876L222.01 58.28H233.084L244.158 24.8781H245.595V58.28H255.172V16.5576H237.514Z" fill="white"/>
<path d="M273.518 58.28V47.2657H278.427C290.099 47.2657 295.906 42.1178 295.906 31.762C295.906 21.6457 290.099 16.5576 278.427 16.5576H263.522V58.28H273.518ZM273.518 25.1774H278.427C283.694 25.1774 285.909 27.1528 285.909 31.762C285.909 36.6107 283.634 38.6459 278.427 38.6459H273.518V25.1774Z" fill="white"/>
<path d="M312.041 58.28V16.5576H302.045V58.28H312.041Z" fill="white"/>
<path d="M355.001 58.28L346.74 36.9698L354.282 16.5576H344.226L338.419 32.3606H334.289L328.423 16.5576H318.366L325.909 37.0297L317.648 58.28H327.824L334.529 40.9804H338.18L344.824 58.28H355.001Z" fill="white"/>
<path d="M388.931 58.28V50.2587H370.674V40.8607H387.075V32.8395H370.674V24.5788H388.692V16.5576H360.677V58.28H388.931Z" fill="white"/>
<path d="M422.968 58.28V49.6601H406.566V16.5576H396.57V58.28H422.968Z" fill="white"/>
<path d="M153.439 79.9116H159.15C158.975 82.6466 157.159 84.0251 153.68 84.0251C149.654 84.0251 147.969 82.2309 147.969 77.8549C147.969 73.5664 149.763 71.7942 153.636 71.7942C156.765 71.7942 158.406 72.8882 158.931 75.2512H160.813C160.2 71.7504 157.793 70 153.57 70C148.516 70 146 72.6256 146 77.8768C146 83.2374 148.494 85.8192 153.68 85.8192C158.647 85.8192 161.163 83.5 161.163 78.5113V78.1175H153.439V79.9116Z" fill="white"/>
<path d="M170.448 80.0867C173.445 79.7585 174.955 78.0737 174.955 75.0543C174.955 71.9036 173.073 70.3282 169.288 70.3282H164.562V85.491H166.531V80.1523H167.91L173.183 85.491H175.765L170.448 80.0867ZM169.288 72.1224C171.826 72.1224 172.964 72.9757 172.964 75.0543C172.964 77.4173 171.826 78.3582 169.288 78.3582H166.531V72.1224H169.288Z" fill="white"/>
<path d="M185.388 85.8192C190.573 85.8192 193.046 83.2593 193.046 77.8987C193.046 72.5381 190.573 70 185.388 70C180.224 70 177.752 72.5381 177.752 77.8987C177.752 83.2593 180.224 85.8192 185.388 85.8192ZM191.055 77.8987C191.055 82.1872 189.348 84.0251 185.388 84.0251C181.427 84.0251 179.721 82.209 179.721 77.8987C179.721 73.5446 181.427 71.7942 185.388 71.7942C189.348 71.7942 191.055 73.5446 191.055 77.8987Z" fill="white"/>
<path d="M211.309 83.7406H210.237L207.13 70.3282H205.358L205.336 70.3501V70.3282H203.498L200.369 83.7406H199.297L196.934 70.3282H194.943L197.656 85.491H201.945L205.052 72.1224H205.555L208.64 85.491H212.95L215.641 70.3282H213.672L211.309 83.7406Z" fill="white"/>
<path d="M224.271 85.491V72.1224H228.603V70.3282H217.926V72.1224H222.28V85.491H224.271Z" fill="white"/>
<path d="M240.218 76.6953H233.282V70.3282H231.313V85.491H233.282V78.4894H240.218V85.491H242.188V70.3282H240.218V76.6953Z" fill="white"/>
<path d="M265.548 70.3282L260.603 83.4562L255.68 70.3282H251.697V85.491H253.667V72.1224H254.323L259.465 85.491H261.762L266.904 72.1224H267.56V85.491H269.552V70.3282H265.548Z" fill="white"/>
<path d="M284.937 85.491L280.911 70.3282H276.119L272.115 85.491H274.128L275.244 81.2244H281.786L282.902 85.491H284.937ZM277.651 72.1224H279.401L281.305 79.4303H275.725L277.651 72.1224Z" fill="white"/>
<path d="M293.373 80.0867C296.371 79.7585 297.881 78.0737 297.881 75.0543C297.881 71.9036 295.999 70.3282 292.214 70.3282H287.488V85.491H289.457V80.1523H290.835L296.108 85.491H298.69L293.373 80.0867ZM292.214 72.1224C294.752 72.1224 295.889 72.9757 295.889 75.0543C295.889 77.4173 294.752 78.3582 292.214 78.3582H289.457V72.1224H292.214Z" fill="white"/>
<path d="M312.47 85.491L308.313 77.6361L312.208 70.3282H310.064L306.65 76.6953H303.303V70.3282H301.333V85.491H303.303V78.4894H306.607L310.304 85.491H312.47Z" fill="white"/>
<path d="M324.457 85.491V83.6969H317.127V78.4894H323.779V76.6953H317.127V72.1224H324.348V70.3282H315.158V85.491H324.457Z" fill="white"/>
<path d="M332.902 85.491V72.1224H337.234V70.3282H326.557V72.1224H330.911V85.491H332.902Z" fill="white"/>
<path d="M341.913 85.491V70.3282H339.944V85.491H341.913Z" fill="white"/>
<path d="M357.658 83.7406H357.067L349.474 70.3282H345.799V85.491H347.768V72.1224H348.359L355.951 85.491H359.649V70.3282H357.658V83.7406Z" fill="white"/>
<path d="M370.295 79.9116H376.005C375.83 82.6466 374.014 84.0251 370.535 84.0251C366.51 84.0251 364.825 82.2309 364.825 77.8549C364.825 73.5664 366.619 71.7942 370.492 71.7942C373.621 71.7942 375.262 72.8882 375.787 75.2512H377.668C377.056 71.7504 374.649 70 370.426 70C365.372 70 362.856 72.6256 362.856 77.8768C362.856 83.2374 365.35 85.8192 370.535 85.8192C375.502 85.8192 378.018 83.5 378.018 78.5113V78.1175H370.295V79.9116Z" fill="white"/>
<path d="M43.2578 57.0838L28.8398 71.5017L43.2578 85.9196L57.6757 71.5017L43.2578 57.0838Z" fill="white"/>
<path d="M43.2648 32.2713L32.8774 42.6587L43.2648 53.0461L53.6522 42.6587L43.2648 32.2713Z" fill="white"/>
<path d="M57.69 42.66L72.11 57L86.5 42.66L72.11 28.24L43.26 0L21.78 21.48L14.42 28.24L0 42.66L14.42 57L28.84 42.66L43.26 6.61L57.69 42.66Z" fill="white"/>
</g>
<defs>
<clipPath id="clip0_15_2">
<rect width="425.2" height="94.07" fill="white"/>
</clipPath>
</defs>
</svg>
